<mxfile host="www.draw.io" modified="2020-01-13T07:23:32.710Z" agent="Mozilla/5.0 (Macintosh; Intel Mac OS X 10_15_2) AppleWebKit/537.36 (KHTML, like Gecko) Chrome/79.0.3945.117 Safari/537.36" etag="RjAKzvHKMHryuT4I6GVW" version="12.5.1" type="github">
  <diagram id="NpX0cxgl5t1VBrrAzQDv" name="Page-1">
    <mxGraphModel dx="2066" dy="1131" grid="1" gridSize="10" guides="1" tooltips="1" connect="1" arrows="1" fold="1" page="1" pageScale="1" pageWidth="827" pageHeight="1169" math="0" shadow="0">
      <root>
        <mxCell id="0"/>
        <mxCell id="1" parent="0"/>
        <mxCell id="j4Y0C1MUfTI4aNyCx_LK-1" value="fe_user" style="swimlane;fontStyle=0;childLayout=stackLayout;horizontal=1;startSize=26;fillColor=#e0e0e0;horizontalStack=0;resizeParent=1;resizeParentMax=0;resizeLast=0;collapsible=1;marginBottom=0;swimlaneFillColor=#ffffff;align=center;fontSize=14;" vertex="1" parent="1">
          <mxGeometry x="120" y="120" width="160" height="274" as="geometry"/>
        </mxCell>
        <mxCell id="j4Y0C1MUfTI4aNyCx_LK-2" value="id" style="shape=partialRectangle;top=0;left=0;right=0;bottom=1;align=left;verticalAlign=middle;fillColor=none;spacingLeft=34;spacingRight=4;overflow=hidden;rotatable=0;points=[[0,0.5],[1,0.5]];portConstraint=eastwest;dropTarget=0;fontStyle=5;fontSize=12;" vertex="1" parent="j4Y0C1MUfTI4aNyCx_LK-1">
          <mxGeometry y="26" width="160" height="30" as="geometry"/>
        </mxCell>
        <mxCell id="j4Y0C1MUfTI4aNyCx_LK-3" value="PK" style="shape=partialRectangle;top=0;left=0;bottom=0;fillColor=none;align=left;verticalAlign=middle;spacingLeft=4;spacingRight=4;overflow=hidden;rotatable=0;points=[];portConstraint=eastwest;part=1;fontSize=12;" vertex="1" connectable="0" parent="j4Y0C1MUfTI4aNyCx_LK-2">
          <mxGeometry width="30" height="30" as="geometry"/>
        </mxCell>
        <mxCell id="j4Y0C1MUfTI4aNyCx_LK-4" value="name" style="shape=partialRectangle;top=0;left=0;right=0;bottom=0;align=left;verticalAlign=top;fillColor=none;spacingLeft=34;spacingRight=4;overflow=hidden;rotatable=0;points=[[0,0.5],[1,0.5]];portConstraint=eastwest;dropTarget=0;fontSize=12;" vertex="1" parent="j4Y0C1MUfTI4aNyCx_LK-1">
          <mxGeometry y="56" width="160" height="26" as="geometry"/>
        </mxCell>
        <mxCell id="j4Y0C1MUfTI4aNyCx_LK-5" value="" style="shape=partialRectangle;top=0;left=0;bottom=0;fillColor=none;align=left;verticalAlign=top;spacingLeft=4;spacingRight=4;overflow=hidden;rotatable=0;points=[];portConstraint=eastwest;part=1;fontSize=12;" vertex="1" connectable="0" parent="j4Y0C1MUfTI4aNyCx_LK-4">
          <mxGeometry width="30" height="26" as="geometry"/>
        </mxCell>
        <mxCell id="j4Y0C1MUfTI4aNyCx_LK-6" value="email" style="shape=partialRectangle;top=0;left=0;right=0;bottom=0;align=left;verticalAlign=top;fillColor=none;spacingLeft=34;spacingRight=4;overflow=hidden;rotatable=0;points=[[0,0.5],[1,0.5]];portConstraint=eastwest;dropTarget=0;fontSize=12;" vertex="1" parent="j4Y0C1MUfTI4aNyCx_LK-1">
          <mxGeometry y="82" width="160" height="26" as="geometry"/>
        </mxCell>
        <mxCell id="j4Y0C1MUfTI4aNyCx_LK-7" value="" style="shape=partialRectangle;top=0;left=0;bottom=0;fillColor=none;align=left;verticalAlign=top;spacingLeft=4;spacingRight=4;overflow=hidden;rotatable=0;points=[];portConstraint=eastwest;part=1;fontSize=12;" vertex="1" connectable="0" parent="j4Y0C1MUfTI4aNyCx_LK-6">
          <mxGeometry width="30" height="26" as="geometry"/>
        </mxCell>
        <mxCell id="j4Y0C1MUfTI4aNyCx_LK-12" value="password" style="shape=partialRectangle;top=0;left=0;right=0;bottom=0;align=left;verticalAlign=top;fillColor=none;spacingLeft=34;spacingRight=4;overflow=hidden;rotatable=0;points=[[0,0.5],[1,0.5]];portConstraint=eastwest;dropTarget=0;fontSize=12;" vertex="1" parent="j4Y0C1MUfTI4aNyCx_LK-1">
          <mxGeometry y="108" width="160" height="26" as="geometry"/>
        </mxCell>
        <mxCell id="j4Y0C1MUfTI4aNyCx_LK-13" value="" style="shape=partialRectangle;top=0;left=0;bottom=0;fillColor=none;align=left;verticalAlign=top;spacingLeft=4;spacingRight=4;overflow=hidden;rotatable=0;points=[];portConstraint=eastwest;part=1;fontSize=12;" vertex="1" connectable="0" parent="j4Y0C1MUfTI4aNyCx_LK-12">
          <mxGeometry width="30" height="26" as="geometry"/>
        </mxCell>
        <mxCell id="j4Y0C1MUfTI4aNyCx_LK-14" value="avator" style="shape=partialRectangle;top=0;left=0;right=0;bottom=0;align=left;verticalAlign=top;fillColor=none;spacingLeft=34;spacingRight=4;overflow=hidden;rotatable=0;points=[[0,0.5],[1,0.5]];portConstraint=eastwest;dropTarget=0;fontSize=12;" vertex="1" parent="j4Y0C1MUfTI4aNyCx_LK-1">
          <mxGeometry y="134" width="160" height="26" as="geometry"/>
        </mxCell>
        <mxCell id="j4Y0C1MUfTI4aNyCx_LK-15" value="" style="shape=partialRectangle;top=0;left=0;bottom=0;fillColor=none;align=left;verticalAlign=top;spacingLeft=4;spacingRight=4;overflow=hidden;rotatable=0;points=[];portConstraint=eastwest;part=1;fontSize=12;" vertex="1" connectable="0" parent="j4Y0C1MUfTI4aNyCx_LK-14">
          <mxGeometry width="30" height="26" as="geometry"/>
        </mxCell>
        <mxCell id="j4Y0C1MUfTI4aNyCx_LK-8" value="gender" style="shape=partialRectangle;top=0;left=0;right=0;bottom=0;align=left;verticalAlign=top;fillColor=none;spacingLeft=34;spacingRight=4;overflow=hidden;rotatable=0;points=[[0,0.5],[1,0.5]];portConstraint=eastwest;dropTarget=0;fontSize=12;" vertex="1" parent="j4Y0C1MUfTI4aNyCx_LK-1">
          <mxGeometry y="160" width="160" height="26" as="geometry"/>
        </mxCell>
        <mxCell id="j4Y0C1MUfTI4aNyCx_LK-9" value="" style="shape=partialRectangle;top=0;left=0;bottom=0;fillColor=none;align=left;verticalAlign=top;spacingLeft=4;spacingRight=4;overflow=hidden;rotatable=0;points=[];portConstraint=eastwest;part=1;fontSize=12;" vertex="1" connectable="0" parent="j4Y0C1MUfTI4aNyCx_LK-8">
          <mxGeometry width="30" height="26" as="geometry"/>
        </mxCell>
        <mxCell id="j4Y0C1MUfTI4aNyCx_LK-16" value="birthday" style="shape=partialRectangle;top=0;left=0;right=0;bottom=0;align=left;verticalAlign=top;fillColor=none;spacingLeft=34;spacingRight=4;overflow=hidden;rotatable=0;points=[[0,0.5],[1,0.5]];portConstraint=eastwest;dropTarget=0;fontSize=12;" vertex="1" parent="j4Y0C1MUfTI4aNyCx_LK-1">
          <mxGeometry y="186" width="160" height="26" as="geometry"/>
        </mxCell>
        <mxCell id="j4Y0C1MUfTI4aNyCx_LK-17" value="" style="shape=partialRectangle;top=0;left=0;bottom=0;fillColor=none;align=left;verticalAlign=top;spacingLeft=4;spacingRight=4;overflow=hidden;rotatable=0;points=[];portConstraint=eastwest;part=1;fontSize=12;" vertex="1" connectable="0" parent="j4Y0C1MUfTI4aNyCx_LK-16">
          <mxGeometry width="30" height="26" as="geometry"/>
        </mxCell>
        <mxCell id="j4Y0C1MUfTI4aNyCx_LK-18" value="created_at" style="shape=partialRectangle;top=0;left=0;right=0;bottom=0;align=left;verticalAlign=top;fillColor=none;spacingLeft=34;spacingRight=4;overflow=hidden;rotatable=0;points=[[0,0.5],[1,0.5]];portConstraint=eastwest;dropTarget=0;fontSize=12;" vertex="1" parent="j4Y0C1MUfTI4aNyCx_LK-1">
          <mxGeometry y="212" width="160" height="26" as="geometry"/>
        </mxCell>
        <mxCell id="j4Y0C1MUfTI4aNyCx_LK-19" value="" style="shape=partialRectangle;top=0;left=0;bottom=0;fillColor=none;align=left;verticalAlign=top;spacingLeft=4;spacingRight=4;overflow=hidden;rotatable=0;points=[];portConstraint=eastwest;part=1;fontSize=12;" vertex="1" connectable="0" parent="j4Y0C1MUfTI4aNyCx_LK-18">
          <mxGeometry width="30" height="26" as="geometry"/>
        </mxCell>
        <mxCell id="j4Y0C1MUfTI4aNyCx_LK-22" value="updated_at" style="shape=partialRectangle;top=0;left=0;right=0;bottom=0;align=left;verticalAlign=top;fillColor=none;spacingLeft=34;spacingRight=4;overflow=hidden;rotatable=0;points=[[0,0.5],[1,0.5]];portConstraint=eastwest;dropTarget=0;fontSize=12;" vertex="1" parent="j4Y0C1MUfTI4aNyCx_LK-1">
          <mxGeometry y="238" width="160" height="26" as="geometry"/>
        </mxCell>
        <mxCell id="j4Y0C1MUfTI4aNyCx_LK-23" value="" style="shape=partialRectangle;top=0;left=0;bottom=0;fillColor=none;align=left;verticalAlign=top;spacingLeft=4;spacingRight=4;overflow=hidden;rotatable=0;points=[];portConstraint=eastwest;part=1;fontSize=12;" vertex="1" connectable="0" parent="j4Y0C1MUfTI4aNyCx_LK-22">
          <mxGeometry width="30" height="26" as="geometry"/>
        </mxCell>
        <mxCell id="j4Y0C1MUfTI4aNyCx_LK-10" value="" style="shape=partialRectangle;top=0;left=0;right=0;bottom=0;align=left;verticalAlign=top;fillColor=none;spacingLeft=34;spacingRight=4;overflow=hidden;rotatable=0;points=[[0,0.5],[1,0.5]];portConstraint=eastwest;dropTarget=0;fontSize=12;" vertex="1" parent="j4Y0C1MUfTI4aNyCx_LK-1">
          <mxGeometry y="264" width="160" height="10" as="geometry"/>
        </mxCell>
        <mxCell id="j4Y0C1MUfTI4aNyCx_LK-11" value="" style="shape=partialRectangle;top=0;left=0;bottom=0;fillColor=none;align=left;verticalAlign=top;spacingLeft=4;spacingRight=4;overflow=hidden;rotatable=0;points=[];portConstraint=eastwest;part=1;fontSize=12;" vertex="1" connectable="0" parent="j4Y0C1MUfTI4aNyCx_LK-10">
          <mxGeometry width="30" height="10" as="geometry"/>
        </mxCell>
      </root>
    </mxGraphModel>
  </diagram>
</mxfile>
